<svg width="20" height="20" xmlns="http://www.w3.org/2000/svg" xmlns:xlink="http://www.w3.org/1999/xlink" viewBox="0 0 46.9 48"><defs><path id="a" d="M46.4 19.6H24v9.3h12.9c-1.2 5.9-6.2 9.3-12.9 9.3-7.9 0-14.2-6.3-14.2-14.2S16.2 9.8 24 9.8c3.4 0 6.4 1.2 8.8 3.2l7-7C35.6 2.2 30.1 0 24 0 10.7 0 0 10.7 0 24s10.7 24 24 24c12 0 22.9-8.7 22.9-24 0-1.4-.2-3-.5-4.4z"/></defs><clipPath id="b"><use xlink:href="#a" overflow="visible"/></clipPath><path d="M-2.2 38.2V9.8L16.4 24-2.2 38.2z" clip-path="url(#b)" fill="#fbbc05"/><defs><path id="c" d="M46.4 19.6H24v9.3h12.9c-1.2 5.9-6.2 9.3-12.9 9.3-7.9 0-14.2-6.3-14.2-14.2S16.2 9.8 24 9.8c3.4 0 6.4 1.2 8.8 3.2l7-7C35.6 2.2 30.1 0 24 0 10.7 0 0 10.7 0 24s10.7 24 24 24c12 0 22.9-8.7 22.9-24 0-1.4-.2-3-.5-4.4z"/></defs><clipPath id="d"><use xlink:href="#c" overflow="visible"/></clipPath><path d="M-2.2 9.8 16.4 24l7.6-6.7L50.2 13V-2.2H-2.2v12z" clip-path="url(#d)" fill="#ea4335"/><defs><path id="e" d="M46.4 19.6H24v9.3h12.9c-1.2 5.9-6.2 9.3-12.9 9.3-7.9 0-14.2-6.3-14.2-14.2S16.2 9.8 24 9.8c3.4 0 6.4 1.2 8.8 3.2l7-7C35.6 2.2 30.1 0 24 0 10.7 0 0 10.7 0 24s10.7 24 24 24c12 0 22.9-8.7 22.9-24 0-1.4-.2-3-.5-4.4z"/></defs><clipPath id="f"><use xlink:href="#e" overflow="visible"/></clipPath><path d="m-2.2 38.2 32.7-25.1 8.6 1.1 11-16.4v52.4H-2.2v-12z" clip-path="url(#f)" fill="#34a853"/><defs><path id="g" d="M46.4 19.6H24v9.3h12.9c-1.2 5.9-6.2 9.3-12.9 9.3-7.9 0-14.2-6.3-14.2-14.2S16.2 9.8 24 9.8c3.4 0 6.4 1.2 8.8 3.2l7-7C35.6 2.2 30.1 0 24 0 10.7 0 0 10.7 0 24s10.7 24 24 24c12 0 22.9-8.7 22.9-24 0-1.4-.2-3-.5-4.4z"/></defs><clipPath id="h"><use xlink:href="#g" overflow="visible"/></clipPath><path d="M50.2 50.2 16.4 24 12 20.7 50.2 9.8v40.4z" clip-path="url(#h)" fill="#4285f4"/></svg>